<mxfile host="app.diagrams.net" agent="Mozilla/5.0 (Windows NT 10.0; Win64; x64) AppleWebKit/537.36 (KHTML, like Gecko) Chrome/131.0.0.0 Safari/537.36" version="25.0.3">
  <diagram id="C5RBs43oDa-KdzZeNtuy" name="Page-1">
    <mxGraphModel dx="1290" dy="1699" grid="1" gridSize="10" guides="1" tooltips="1" connect="1" arrows="1" fold="1" page="1" pageScale="1" pageWidth="827" pageHeight="1169" math="0" shadow="0">
      <root>
        <mxCell id="WIyWlLk6GJQsqaUBKTNV-0" />
        <mxCell id="WIyWlLk6GJQsqaUBKTNV-1" parent="WIyWlLk6GJQsqaUBKTNV-0" />
        <mxCell id="6I2TCmtqUodtOCdws5xy-4" style="edgeStyle=orthogonalEdgeStyle;rounded=0;orthogonalLoop=1;jettySize=auto;html=1;exitX=0.5;exitY=1;exitDx=0;exitDy=0;exitPerimeter=0;entryX=0.5;entryY=0;entryDx=0;entryDy=0;" edge="1" parent="WIyWlLk6GJQsqaUBKTNV-1" source="6I2TCmtqUodtOCdws5xy-0" target="6I2TCmtqUodtOCdws5xy-3">
          <mxGeometry relative="1" as="geometry" />
        </mxCell>
        <mxCell id="6I2TCmtqUodtOCdws5xy-0" value="START" style="strokeWidth=2;html=1;shape=mxgraph.flowchart.start_1;whiteSpace=wrap;" vertex="1" parent="WIyWlLk6GJQsqaUBKTNV-1">
          <mxGeometry x="340" y="-190" width="100" height="60" as="geometry" />
        </mxCell>
        <mxCell id="6I2TCmtqUodtOCdws5xy-3" value="READ NUM" style="shape=parallelogram;html=1;strokeWidth=2;perimeter=parallelogramPerimeter;whiteSpace=wrap;rounded=1;arcSize=12;size=0.23;" vertex="1" parent="WIyWlLk6GJQsqaUBKTNV-1">
          <mxGeometry x="280" y="-70" width="220" height="60" as="geometry" />
        </mxCell>
        <mxCell id="6I2TCmtqUodtOCdws5xy-10" style="edgeStyle=orthogonalEdgeStyle;rounded=0;orthogonalLoop=1;jettySize=auto;html=1;exitX=1;exitY=0.5;exitDx=0;exitDy=0;exitPerimeter=0;entryX=0.5;entryY=0;entryDx=0;entryDy=0;" edge="1" parent="WIyWlLk6GJQsqaUBKTNV-1" source="6I2TCmtqUodtOCdws5xy-6" target="6I2TCmtqUodtOCdws5xy-8">
          <mxGeometry relative="1" as="geometry" />
        </mxCell>
        <mxCell id="6I2TCmtqUodtOCdws5xy-13" value="NO" style="edgeLabel;html=1;align=center;verticalAlign=middle;resizable=0;points=[];" vertex="1" connectable="0" parent="6I2TCmtqUodtOCdws5xy-10">
          <mxGeometry x="-0.3873" y="1" relative="1" as="geometry">
            <mxPoint as="offset" />
          </mxGeometry>
        </mxCell>
        <mxCell id="6I2TCmtqUodtOCdws5xy-11" style="edgeStyle=orthogonalEdgeStyle;rounded=0;orthogonalLoop=1;jettySize=auto;html=1;exitX=0;exitY=0.5;exitDx=0;exitDy=0;exitPerimeter=0;" edge="1" parent="WIyWlLk6GJQsqaUBKTNV-1" source="6I2TCmtqUodtOCdws5xy-6" target="6I2TCmtqUodtOCdws5xy-9">
          <mxGeometry relative="1" as="geometry" />
        </mxCell>
        <mxCell id="6I2TCmtqUodtOCdws5xy-12" value="YES" style="edgeLabel;html=1;align=center;verticalAlign=middle;resizable=0;points=[];" vertex="1" connectable="0" parent="6I2TCmtqUodtOCdws5xy-11">
          <mxGeometry x="-0.4586" y="-2" relative="1" as="geometry">
            <mxPoint as="offset" />
          </mxGeometry>
        </mxCell>
        <mxCell id="6I2TCmtqUodtOCdws5xy-6" value="NUM % 2 &amp;lt;&amp;gt; 0" style="strokeWidth=2;html=1;shape=mxgraph.flowchart.decision;whiteSpace=wrap;" vertex="1" parent="WIyWlLk6GJQsqaUBKTNV-1">
          <mxGeometry x="315" y="280" width="150" height="140" as="geometry" />
        </mxCell>
        <mxCell id="6I2TCmtqUodtOCdws5xy-8" value="PRINT &quot;NOT PRIME&quot;" style="shape=parallelogram;html=1;strokeWidth=2;perimeter=parallelogramPerimeter;whiteSpace=wrap;rounded=1;arcSize=12;size=0.23;" vertex="1" parent="WIyWlLk6GJQsqaUBKTNV-1">
          <mxGeometry x="465" y="420" width="270" height="60" as="geometry" />
        </mxCell>
        <mxCell id="6I2TCmtqUodtOCdws5xy-9" value="PRINT &quot;PRIME&quot;" style="shape=parallelogram;html=1;strokeWidth=2;perimeter=parallelogramPerimeter;whiteSpace=wrap;rounded=1;arcSize=12;size=0.23;" vertex="1" parent="WIyWlLk6GJQsqaUBKTNV-1">
          <mxGeometry x="45" y="430" width="270" height="60" as="geometry" />
        </mxCell>
        <mxCell id="6I2TCmtqUodtOCdws5xy-14" value="END" style="strokeWidth=2;html=1;shape=mxgraph.flowchart.terminator;whiteSpace=wrap;" vertex="1" parent="WIyWlLk6GJQsqaUBKTNV-1">
          <mxGeometry x="340" y="540" width="100" height="60" as="geometry" />
        </mxCell>
        <mxCell id="6I2TCmtqUodtOCdws5xy-15" style="edgeStyle=orthogonalEdgeStyle;rounded=0;orthogonalLoop=1;jettySize=auto;html=1;exitX=0.5;exitY=1;exitDx=0;exitDy=0;entryX=1;entryY=0.5;entryDx=0;entryDy=0;entryPerimeter=0;" edge="1" parent="WIyWlLk6GJQsqaUBKTNV-1" source="6I2TCmtqUodtOCdws5xy-8" target="6I2TCmtqUodtOCdws5xy-14">
          <mxGeometry relative="1" as="geometry" />
        </mxCell>
        <mxCell id="6I2TCmtqUodtOCdws5xy-16" style="edgeStyle=orthogonalEdgeStyle;rounded=0;orthogonalLoop=1;jettySize=auto;html=1;exitX=0.5;exitY=1;exitDx=0;exitDy=0;entryX=0;entryY=0.5;entryDx=0;entryDy=0;entryPerimeter=0;" edge="1" parent="WIyWlLk6GJQsqaUBKTNV-1" source="6I2TCmtqUodtOCdws5xy-9" target="6I2TCmtqUodtOCdws5xy-14">
          <mxGeometry relative="1" as="geometry" />
        </mxCell>
        <mxCell id="6I2TCmtqUodtOCdws5xy-18" style="edgeStyle=orthogonalEdgeStyle;rounded=0;orthogonalLoop=1;jettySize=auto;html=1;exitX=0.5;exitY=1;exitDx=0;exitDy=0;exitPerimeter=0;" edge="1" parent="WIyWlLk6GJQsqaUBKTNV-1" source="6I2TCmtqUodtOCdws5xy-17" target="6I2TCmtqUodtOCdws5xy-6">
          <mxGeometry relative="1" as="geometry" />
        </mxCell>
        <mxCell id="6I2TCmtqUodtOCdws5xy-20" value="YES" style="edgeLabel;html=1;align=center;verticalAlign=middle;resizable=0;points=[];" vertex="1" connectable="0" parent="6I2TCmtqUodtOCdws5xy-18">
          <mxGeometry x="-0.1257" relative="1" as="geometry">
            <mxPoint as="offset" />
          </mxGeometry>
        </mxCell>
        <mxCell id="6I2TCmtqUodtOCdws5xy-22" style="edgeStyle=orthogonalEdgeStyle;rounded=0;orthogonalLoop=1;jettySize=auto;html=1;exitX=0;exitY=0.5;exitDx=0;exitDy=0;exitPerimeter=0;entryX=1;entryY=0.5;entryDx=0;entryDy=0;" edge="1" parent="WIyWlLk6GJQsqaUBKTNV-1" source="6I2TCmtqUodtOCdws5xy-17" target="6I2TCmtqUodtOCdws5xy-21">
          <mxGeometry relative="1" as="geometry" />
        </mxCell>
        <mxCell id="6I2TCmtqUodtOCdws5xy-24" value="NO" style="edgeLabel;html=1;align=center;verticalAlign=middle;resizable=0;points=[];" vertex="1" connectable="0" parent="6I2TCmtqUodtOCdws5xy-22">
          <mxGeometry x="-0.231" y="-1" relative="1" as="geometry">
            <mxPoint as="offset" />
          </mxGeometry>
        </mxCell>
        <mxCell id="6I2TCmtqUodtOCdws5xy-17" value="NUM &amp;gt; 0" style="strokeWidth=2;html=1;shape=mxgraph.flowchart.decision;whiteSpace=wrap;" vertex="1" parent="WIyWlLk6GJQsqaUBKTNV-1">
          <mxGeometry x="315" y="70" width="150" height="140" as="geometry" />
        </mxCell>
        <mxCell id="6I2TCmtqUodtOCdws5xy-19" style="edgeStyle=orthogonalEdgeStyle;rounded=0;orthogonalLoop=1;jettySize=auto;html=1;exitX=0.5;exitY=1;exitDx=0;exitDy=0;entryX=0.5;entryY=0;entryDx=0;entryDy=0;entryPerimeter=0;" edge="1" parent="WIyWlLk6GJQsqaUBKTNV-1" source="6I2TCmtqUodtOCdws5xy-3" target="6I2TCmtqUodtOCdws5xy-17">
          <mxGeometry relative="1" as="geometry" />
        </mxCell>
        <mxCell id="6I2TCmtqUodtOCdws5xy-23" style="edgeStyle=orthogonalEdgeStyle;rounded=0;orthogonalLoop=1;jettySize=auto;html=1;exitX=0.5;exitY=0;exitDx=0;exitDy=0;entryX=0;entryY=0.5;entryDx=0;entryDy=0;" edge="1" parent="WIyWlLk6GJQsqaUBKTNV-1" source="6I2TCmtqUodtOCdws5xy-21" target="6I2TCmtqUodtOCdws5xy-3">
          <mxGeometry relative="1" as="geometry">
            <Array as="points">
              <mxPoint x="140" y="-40" />
            </Array>
          </mxGeometry>
        </mxCell>
        <mxCell id="6I2TCmtqUodtOCdws5xy-21" value="PRINT &quot;NUMBER MUST BE &amp;gt;0 &quot;" style="shape=parallelogram;html=1;strokeWidth=2;perimeter=parallelogramPerimeter;whiteSpace=wrap;rounded=1;arcSize=12;size=0.23;" vertex="1" parent="WIyWlLk6GJQsqaUBKTNV-1">
          <mxGeometry x="10" y="115" width="260" height="50" as="geometry" />
        </mxCell>
      </root>
    </mxGraphModel>
  </diagram>
</mxfile>
